# xmcd
#
# Track frame offsets:
#	150
#	12774
#	29326
#	43944
#	60276
#	77833
#	96932
#	121801
#	132248
#	160181
#	177765
#	193970
#	207967
#	230200
#	251289
#	262812
#	275573
#	287397
#	302556
#	314966
#	328918
#	341371
#
# Disc length: 4700 seconds
#
# Revision: 1
# Processed by: cddbd v1.4PL0 Copyright (c) Steve Scherf et al.
# Submitted via: audiograbber 1.80
#
DISCID=3b125a16
DTITLE=Bob Dylan - The Ultimate Collection CD1
DYEAR=1900
DGENRE=
TTITLE0=Blowin' In The Wind
TTITLE1=Don't Think Twice, It's All Right
TTITLE2=The Times They Are A-Changin'
TTITLE3=It Ain't Me, Babe
TTITLE4=Maggie'S Farm
TTITLE5=It's All Over Now, Baby Blue
TTITLE6=Mr. Tambourine Man
TTITLE7=Subterranean Homesick Blues
TTITLE8=Like A Rolling Stone
TTITLE9=Positively 4th Street
TTITLE10=Can You Please Crawl Out Your Window?
TTITLE11=I Want You
TTITLE12=Just Like A Woman
TTITLE13=Rainy Day Women #12 and 35
TTITLE14=All Along The Watchtower
TTITLE15=Quinn The Eskimo (The Mighty Quinn)
TTITLE16=I'll Be Your Baby Tonight
TTITLE17=Lay, Lady, Lay
TTITLE18=If Not For You
TTITLE19=I Shall Be Released
TTITLE20=You Ain't Going Nowhere
TTITLE21=Knockin' On Heaven's Door
EXTD=
EXTT0=
EXTT1=
EXTT2=
EXTT3=
EXTT4=
EXTT5=
EXTT6=
EXTT7=
EXTT8=
EXTT9=
EXTT10=
EXTT11=
EXTT12=
EXTT13=
EXTT14=
EXTT15=
EXTT16=
EXTT17=
EXTT18=
EXTT19=
EXTT20=
EXTT21=
PLAYORDER=
